<svg xmlns="http://www.w3.org/2000/svg" width="67.691" height="46.92"><defs><linearGradient id="a" x1=".5" x2=".5" y2="1" gradientUnits="objectBoundingBox"><stop offset="0" stop-color="#ec2317"/><stop offset="1" stop-color="#76120c"/></linearGradient></defs><path data-name="Path 78" d="M262.24 111.44a1.117 1.117 0 0 1-.44-1.028c.012-3.829 0-7.658 0-11.5a5.492 5.492 0 0 1 5.125-5.872l.771-.11a1.676 1.676 0 0 0 1.37-1.015c.159-.343.306-.7.453-1.015-.612-.465-1.211-.905-1.823-1.37a3.948 3.948 0 0 1-.159.4 1.193 1.193 0 0 1-1.211.722 1.112 1.112 0 0 1-1.052-.869c-.33-1.786-.636-3.572-.905-5.358a5.99 5.99 0 0 1 .037-1.235c.049-.648.318-1.3-.245-1.884-.135-.135-.11-.44-.122-.661-.012-.514 0-1.04 0-1.554a1.707 1.707 0 0 1 1.309-1.969c0-1.272.012-2.557-.012-3.829 0-.147-.184-.318-.33-.416a3.461 3.461 0 0 1-1.627-3.45 3.415 3.415 0 0 1 2.532-3 3.277 3.277 0 0 1 2.239.073.4.4 0 0 0 .514-.1 5.272 5.272 0 0 1 8.171.122 1 1 0 0 0 .1.073 3.917 3.917 0 0 1 2.251-.245A3.59 3.59 0 0 1 282 69.238a3.545 3.545 0 0 1-1.59 3.633.693.693 0 0 0-.379.685 94.821 94.821 0 0 1 0 3.2.481.481 0 0 0 .342.538 1.544 1.544 0 0 1 .991 1.5c.012.636.012 1.284 0 1.92a1.688 1.688 0 0 1-.538 1.223.515.515 0 0 0-.147.379 11.8 11.8 0 0 1-.33 4.979c-.159.7-.294 1.407-.428 2.1-.147.746-.489 1.15-1.04 1.235-.6.086-1.028-.171-1.407-.893-.526.379-1.04.758-1.59 1.15.183.391.342.807.563 1.187a1.651 1.651 0 0 0 1.3.832 15.412 15.412 0 0 1 2.239.44 5.316 5.316 0 0 1 3.633 5.04c.012 4.049 0 8.086.012 12.135a.961.961 0 0 1-.465.869h-.453a.989.989 0 0 1-.465-.966c.012-3.988.012-7.963 0-11.951a4 4 0 0 0-3.193-3.988c-.6-.122-1.2-.183-1.847-.281v5.1a2.123 2.123 0 0 0 1.908 2.422 1.024 1.024 0 0 1 .881 1.064q.018.936 0 1.872c-.012.489-.245.771-.648.783-.428.012-.7-.257-.722-.771-.012-.391-.024-.8 0-1.187.024-.318-.073-.465-.4-.575a3.422 3.422 0 0 1-2.385-3.278v-.904h-6.422c0 .355.012.673 0 .991a3.382 3.382 0 0 1-2.361 3.2c-.343.11-.4.269-.4.587.012 2.287 0 4.575.012 6.862a1.105 1.105 0 0 1-.44 1.028h-.453a.842.842 0 0 1-.489-.807c.012-2.581 0-5.15.012-7.731a1.055 1.055 0 0 1 .954-1.15 2.088 2.088 0 0 0 1.81-2.226v-4.803c0-.135-.012-.257-.024-.44-.587.1-1.125.147-1.664.269a4.019 4.019 0 0 0-3.119 4.135c-.012 3.914 0 7.841 0 11.755a.954.954 0 0 1-.489.991 2.012 2.012 0 0 1-.529.049zm16.391-34.3v-3.8a2.1 2.1 0 0 1-.416-.073c-.673-.232-1.358-.428-2.006-.709a.654.654 0 0 1-.355-.942.714.714 0 0 1 1.027-.245 7.976 7.976 0 0 0 1.223.489 1.832 1.832 0 0 0 1.59-.135 2.222 2.222 0 0 0 .722-2.875 2.189 2.189 0 0 0-2.789-.991c-1 .4-1.2.355-1.872-.453a3.933 3.933 0 0 0-6.165.073c-.55.709-.881.783-1.737.416a2.211 2.211 0 0 0-3.107 1.651c-.22 1.211.893 2.8 2.239 2.361.514-.171 1.04-.33 1.541-.538.44-.183.8-.135 1 .208a.68.68 0 0 1-.342.991 13.548 13.548 0 0 1-1.517.612 7.911 7.911 0 0 1-.905.183v3.8c3.968-.023 7.894-.023 11.87-.023zm-.031 11.327c.44-2.018 1.211-3.988.661-6.092h-1.908c.061.355.122.685.159 1.015a.686.686 0 0 1-1.346.257 6.077 6.077 0 0 1-.171-.942c-.024-.281-.147-.355-.4-.355-1.982.012-3.963.012-5.957 0-.294 0-.379.11-.44.379-.318 1.566-.661 3.132-.966 4.7a.959.959 0 0 0 .135.661 5.437 5.437 0 0 0 8 .758c.514-.477.832-.942.514-1.651a.881.881 0 0 1-.086-.575c.1-.232.294-.55.5-.6s.514.147.734.294c.1.061.11.269.147.416.15.586.285 1.16.424 1.735zm-5.884-7.5h6.544c.734 0 .734 0 .734-.758 0-.367-.024-.734.012-1.1.037-.465-.147-.6-.6-.6q-6.128.018-12.257.012c-.416 0-.82.012-1.235 0-.355-.012-.5.1-.477.465a10.986 10.986 0 0 1 0 1.419c-.037.44.122.575.563.575 2.234-.011 4.473-.011 6.711-.011zm3.058 13.664a4.73 4.73 0 0 1-6.361-.159v2.85h6.361zm-1.223-3.242a6.887 6.887 0 0 1-3.694 0c-.281.6-.563 1.174-.832 1.737a3.361 3.361 0 0 0 5.333-.049c-.258-.561-.53-1.099-.812-1.686zm-6.593-9.015h-2.006c-.55 2.141.184 4.135.489 6.177.049 0 .1.012.147.012.447-2.053.9-4.096 1.365-6.187z" transform="translate(-238.509 -64.533)" fill="url(#a)"/><path data-name="Path 79" d="M75.351 111.553a1.118 1.118 0 0 1-.428-1.04c.012-2.41 0-4.82 0-7.229 0-.979.2-1.223 1.15-1.443a2.092 2.092 0 0 0 1.615-2.165c.012-1.627 0-3.266 0-4.893a2.786 2.786 0 0 0-.024-.318c-2.642-.073-4.709 1.333-4.881 4.024v.183c-.024.489-.294.8-.709.783s-.673-.318-.673-.82a5.367 5.367 0 0 1 1.26-3.5 5.6 5.6 0 0 1 3.89-1.982q.385-.037.771-.11a1.659 1.659 0 0 0 1.333-.991q.239-.514.477-1.064c-.183-.122-.355-.22-.514-.33a6.89 6.89 0 0 1-2.936-4.049 5.354 5.354 0 0 0-.624-1.309 5.578 5.578 0 0 1-.844-2.948 1.345 1.345 0 0 0-.147-.4.325.325 0 0 0-.061-.073 5.074 5.074 0 0 1-.024-3.988 1.821 1.821 0 0 1 .648-.489.462.462 0 0 0 .343-.489c-.012-1.125 0-2.263-.024-3.388a.618.618 0 0 0-.257-.453 3.58 3.58 0 0 1 3.168-6.4c.061.024.11.037.073.024a17.306 17.306 0 0 1 1.907-1.406 5.223 5.223 0 0 1 6.385 1.138.513.513 0 0 0 .648.2 3.577 3.577 0 0 1 3.058 6.422c-.135.086-.294.257-.294.391-.024 1.284-.012 2.557-.012 3.853a1.729 1.729 0 0 1 1.309 1.994c-.024.453-.012.917 0 1.37A1.834 1.834 0 0 1 90.495 82a.67.67 0 0 0-.122.416 5.726 5.726 0 0 1-.709 2.716 23.6 23.6 0 0 0-1 2.19 6.918 6.918 0 0 1-2.864 3.461c-.086.061-.183.11-.269.171a.463.463 0 0 0-.1.086c.183.4.355.832.575 1.223a1.678 1.678 0 0 0 1.309.82 16.631 16.631 0 0 1 2.067.379 5.344 5.344 0 0 1 3.78 5.125c.037 4.049.012 8.086-.012 12.135 0 .281-.269.563-.416.844h-.55a1.227 1.227 0 0 1-.4-1.052c.012-3.853.012-7.719 0-11.572a4.569 4.569 0 0 0-.122-1.223c-.612-2.385-2.434-3.217-4.783-3.254a.826.826 0 0 0-.024.171c0 1.749-.012 3.511.012 5.26a2.026 2.026 0 0 0 1.713 1.969 1.088 1.088 0 0 1 1.052 1.284c0 2.508-.012 5 .012 7.511a.916.916 0 0 1-.477.905h-.453a1.046 1.046 0 0 1-.453-.979c.012-2.324.012-4.636 0-6.96 0-.2.049-.391-.245-.5a3.411 3.411 0 0 1-2.532-3.584v-.661h-6.451a10.741 10.741 0 0 1-.012 1.26 3.277 3.277 0 0 1-2.324 2.936c-.355.122-.416.281-.416.612.012 2.275 0 4.55.012 6.826a1.254 1.254 0 0 1-.4 1.052c-.175-.014-.358-.014-.542-.014zm12.893-38.116a2.687 2.687 0 0 1-.453-.073c-.661-.22-1.333-.416-1.969-.7a.663.663 0 0 1-.367-.979c.2-.367.575-.428 1.04-.208a7.9 7.9 0 0 0 1.223.477 1.774 1.774 0 0 0 1.872-.379 2.228 2.228 0 0 0 .318-2.813 2.2 2.2 0 0 0-2.752-.8c-.881.379-1.187.306-1.774-.428a3.93 3.93 0 0 0-6.141-.061c-.685.832-.893.881-1.872.477a2.21 2.21 0 0 0-2.969 1.401c-.416 1.309.685 3.119 2.239 2.642a13.7 13.7 0 0 0 1.407-.5c.5-.22.868-.171 1.076.208s.073.771-.416 1a12.772 12.772 0 0 1-1.48.575 5.582 5.582 0 0 1-.856.171v3.817h7.119c.147 0 .306 0 .453.012a.6.6 0 0 1 .575.6.612.612 0 0 1-.5.709 2.717 2.717 0 0 1-.55.037c-2.654 0-5.309.012-7.963 0-.367 0-.538.1-.514.489q.037.752 0 1.5c-.012.343.135.453.465.453.722-.012 1.431 0 2.153 0 3.8 0 7.6 0 11.4.012.4 0 .587-.1.563-.538a11.756 11.756 0 0 1 0-1.468c.012-.343-.11-.465-.453-.453q-1.009.018-2.018 0a.686.686 0 0 1-.722-.722.678.678 0 0 1 .746-.636c.367-.012.722 0 1.1 0 .02-1.29.02-2.538.02-3.822zm-5.933 16.942a5.446 5.446 0 0 0 5.04-3.45.462.462 0 0 0-.147-.624 3.657 3.657 0 0 1-1.26-2.067 9.62 9.62 0 0 1-.232-1.3c-.037-.4-.208-.489-.587-.477-1.786.024-3.572.012-5.346.012-.832 0-.844 0-.954.832a4.185 4.185 0 0 1-1.48 2.838c-.269.208-.257.379-.159.661a5.456 5.456 0 0 0 5.125 3.575zm-3.217 4.269v2.777h6.361v-2.752a4.729 4.729 0 0 1-6.361-.025zm5.872-1.419c-.281-.587-.55-1.15-.807-1.676a17.281 17.281 0 0 1-1.884.2 16.258 16.258 0 0 1-1.859-.2c-.269.55-.538 1.113-.807 1.664 1.614 1.725 3.632 1.737 5.357.012zm2.128-10.74c.012 1.187.355 2.385.979 2.667a4.724 4.724 0 0 0 .905-2.667zm-11.474 0a4.258 4.258 0 0 0 .905 2.532 3.471 3.471 0 0 0 1.028-2.532z" transform="translate(-71.4 -64.646)" fill="url(#a)"/><path data-name="Path 111" d="M75.351 111.553a1.118 1.118 0 0 1-.428-1.04c.012-2.41 0-4.82 0-7.229 0-.979.2-1.223 1.15-1.443a2.092 2.092 0 0 0 1.615-2.165c.012-1.627 0-3.266 0-4.893a2.786 2.786 0 0 0-.024-.318c-2.642-.073-4.709 1.333-4.881 4.024v.183c-.024.489-.294.8-.709.783s-.673-.318-.673-.82a5.367 5.367 0 0 1 1.26-3.5 5.6 5.6 0 0 1 3.89-1.982q.385-.037.771-.11a1.659 1.659 0 0 0 1.333-.991q.239-.514.477-1.064c-.183-.122-.355-.22-.514-.33a6.89 6.89 0 0 1-2.936-4.049 5.354 5.354 0 0 0-.624-1.309 5.578 5.578 0 0 1-.844-2.948 1.345 1.345 0 0 0-.147-.4.325.325 0 0 0-.061-.073 5.074 5.074 0 0 1-.024-3.988 1.821 1.821 0 0 1 .648-.489.462.462 0 0 0 .343-.489c-.012-1.125 0-2.263-.024-3.388a.618.618 0 0 0-.257-.453 3.58 3.58 0 0 1 3.168-6.4c.061.024.11.037.073.024a17.306 17.306 0 0 1 1.907-1.406 5.223 5.223 0 0 1 6.385 1.138.513.513 0 0 0 .648.2 3.577 3.577 0 0 1 3.058 6.422c-.135.086-.294.257-.294.391-.024 1.284-.012 2.557-.012 3.853a1.729 1.729 0 0 1 1.309 1.994c-.024.453-.012.917 0 1.37A1.834 1.834 0 0 1 90.495 82a.67.67 0 0 0-.122.416 5.726 5.726 0 0 1-.709 2.716 23.6 23.6 0 0 0-1 2.19 6.918 6.918 0 0 1-2.864 3.461c-.086.061-.183.11-.269.171a.463.463 0 0 0-.1.086c.183.4.355.832.575 1.223a1.678 1.678 0 0 0 1.309.82 16.631 16.631 0 0 1 2.067.379 5.344 5.344 0 0 1 3.78 5.125c.037 4.049.012 8.086-.012 12.135 0 .281-.269.563-.416.844h-.55a1.227 1.227 0 0 1-.4-1.052c.012-3.853.012-7.719 0-11.572a4.569 4.569 0 0 0-.122-1.223c-.612-2.385-2.434-3.217-4.783-3.254a.826.826 0 0 0-.024.171c0 1.749-.012 3.511.012 5.26a2.026 2.026 0 0 0 1.713 1.969 1.088 1.088 0 0 1 1.052 1.284c0 2.508-.012 5 .012 7.511a.916.916 0 0 1-.477.905h-.453a1.046 1.046 0 0 1-.453-.979c.012-2.324.012-4.636 0-6.96 0-.2.049-.391-.245-.5a3.411 3.411 0 0 1-2.532-3.584v-.661h-6.451a10.741 10.741 0 0 1-.012 1.26 3.277 3.277 0 0 1-2.324 2.936c-.355.122-.416.281-.416.612.012 2.275 0 4.55.012 6.826a1.254 1.254 0 0 1-.4 1.052c-.175-.014-.358-.014-.542-.014zm12.893-38.116a2.687 2.687 0 0 1-.453-.073c-.661-.22-1.333-.416-1.969-.7a.663.663 0 0 1-.367-.979c.2-.367.575-.428 1.04-.208a7.9 7.9 0 0 0 1.223.477 1.774 1.774 0 0 0 1.872-.379 2.228 2.228 0 0 0 .318-2.813 2.2 2.2 0 0 0-2.752-.8c-.881.379-1.187.306-1.774-.428a3.93 3.93 0 0 0-6.141-.061c-.685.832-.893.881-1.872.477a2.21 2.21 0 0 0-2.969 1.401c-.416 1.309.685 3.119 2.239 2.642a13.7 13.7 0 0 0 1.407-.5c.5-.22.868-.171 1.076.208s.073.771-.416 1a12.772 12.772 0 0 1-1.48.575 5.582 5.582 0 0 1-.856.171v3.817h7.119c.147 0 .306 0 .453.012a.6.6 0 0 1 .575.6.612.612 0 0 1-.5.709 2.717 2.717 0 0 1-.55.037c-2.654 0-5.309.012-7.963 0-.367 0-.538.1-.514.489q.037.752 0 1.5c-.012.343.135.453.465.453.722-.012 1.431 0 2.153 0 3.8 0 7.6 0 11.4.012.4 0 .587-.1.563-.538a11.756 11.756 0 0 1 0-1.468c.012-.343-.11-.465-.453-.453q-1.009.018-2.018 0a.686.686 0 0 1-.722-.722.678.678 0 0 1 .746-.636c.367-.012.722 0 1.1 0 .02-1.29.02-2.538.02-3.822zm-5.933 16.942a5.446 5.446 0 0 0 5.04-3.45.462.462 0 0 0-.147-.624 3.657 3.657 0 0 1-1.26-2.067 9.62 9.62 0 0 1-.232-1.3c-.037-.4-.208-.489-.587-.477-1.786.024-3.572.012-5.346.012-.832 0-.844 0-.954.832a4.185 4.185 0 0 1-1.48 2.838c-.269.208-.257.379-.159.661a5.456 5.456 0 0 0 5.125 3.575zm-3.217 4.269v2.777h6.361v-2.752a4.729 4.729 0 0 1-6.361-.025zm5.872-1.419c-.281-.587-.55-1.15-.807-1.676a17.281 17.281 0 0 1-1.884.2 16.258 16.258 0 0 1-1.859-.2c-.269.55-.538 1.113-.807 1.664 1.614 1.725 3.632 1.737 5.357.012zm2.128-10.74c.012 1.187.355 2.385.979 2.667a4.724 4.724 0 0 0 .905-2.667zm-11.474 0a4.258 4.258 0 0 0 .905 2.532 3.471 3.471 0 0 0 1.028-2.532z" transform="translate(-25.489 -64.646)" fill="url(#a)"/><path data-name="Path 80" d="M71.865 374.359a1 1 0 0 1-.465-.917c.012-2.813.012-5.615.012-8.428a1.842 1.842 0 0 1 .012-.367.657.657 0 0 1 .648-.55.643.643 0 0 1 .685.55 1.556 1.556 0 0 1 .024.416c0 2.777-.012 5.554.012 8.33a1 1 0 0 1-.465.966z" transform="translate(-71.4 -327.452)" fill="url(#a)"/><path data-name="Path 81" d="M399.321 418.924a1.06 1.06 0 0 1-.428-.991c.024-.8 0-1.578.012-2.373a.618.618 0 0 1 .477-.685 1.221 1.221 0 0 1 .722.22c.11.073.147.33.159.5.012.856.037 1.7-.012 2.557-.012.269-.245.514-.379.771z" transform="translate(-358.832 -372.017)" fill="url(#a)"/><path data-name="Path 82" d="M321.749 389.992h-3.2c-.6 0-.832-.232-.844-.82v-3.841c0-.587.245-.82.844-.832h6.41c.624 0 .868.245.868.856a200.56 200.56 0 0 1 0 3.8c0 .612-.245.844-.881.844-1.056-.007-2.133-.007-3.197-.007zm-2.642-1.407h5.333v-2.691h-5.333z" transform="translate(-287.572 -345.36)" fill="url(#a)"/><path data-name="Path 83" d="M131.183 389.992h-3.2c-.6 0-.844-.232-.844-.832a204.91 204.91 0 0 1 0-3.841c0-.587.257-.82.856-.82h6.41c.624 0 .856.232.856.856v3.8c0 .6-.232.832-.832.832-1.081.013-2.157.005-3.246.005zm-2.654-1.407h5.321v-2.7h-5.321z" transform="translate(-120.308 -345.36)" fill="url(#a)"/></svg>