<svg xmlns="http://www.w3.org/2000/svg" width="75.617" height="47.802"><defs><linearGradient id="a" x1=".5" x2=".5" y2="1" gradientUnits="objectBoundingBox"><stop offset="0" stop-color="#ec2317"/><stop offset="1" stop-color="#76120c"/></linearGradient></defs><path data-name="Path 93" d="M64 168.754a1.591 1.591 0 0 1 1.518-.848c3.568.02 7.137 0 10.705 0a2.386 2.386 0 0 1 .375.02 1.179 1.179 0 0 1 1.143 1.2 1.161 1.161 0 0 1-1.222 1.124c-1.4.02-2.8 0-4.2.02h-.848v2.7h2.445c1.282 0 2.563-.02 3.844 0a.726.726 0 0 0 .769-.513 7.479 7.479 0 0 1 13.742-.02.725.725 0 0 0 .749.532q11.77-.03 23.54-.02c.118 0 .237-.02.453-.039v-.808c0-2.583-.02-5.165.02-7.748a1.916 1.916 0 0 1 .591-1.321c.729-.591 1.735.059 1.735 1.084.02 1.794 0 3.588 0 5.382 0 .927-.02 1.873.02 2.8a1.748 1.748 0 0 0 .217.611c.177-.158.434-.276.532-.473a7.491 7.491 0 0 1 13.7-.138c.237.493.473.71 1.025.67.749-.059 1.518-.02 2.307-.02v-5.244c-.513 0-.986.02-1.479 0a3.649 3.649 0 0 1-3.509-3.568 52.09 52.09 0 0 1 0-2.5 1.178 1.178 0 0 1 1.341-1.3c1.124-.02 2.248 0 3.391 0a3.347 3.347 0 0 0-3.056-2.622c-4.791-.059-9.582-.02-14.471-.02 0 .434.02.848 0 1.262a1.146 1.146 0 0 1-1.1 1.222 1.185 1.185 0 0 1-1.242-1.183c-.02-.217 0-.434 0-.67v-20.821H71.452v21.47a1.171 1.171 0 0 1-1.143 1.2 1.21 1.21 0 0 1-1.222-1.143c-.02-.217-.02-.434-.02-.67v-20.285c0-2.07.907-2.977 2.957-2.977h44.418c2.07 0 2.957.887 2.957 2.957v2.031c.315.02.591.039.848.039 2.524 0 5.067.059 7.59-.02 3.214-.079 5.954 2.169 5.382 6.447-.059.394-.473.729-.808 1.222.572 2.267 1.163 4.732 1.814 7.176a.851.851 0 0 0 .532.473 6.256 6.256 0 0 1 4.85 6.25c.02 4.042 0 8.064 0 12.105 0 1.143-.394 1.538-1.557 1.538h-3.45a7.664 7.664 0 0 1-3.115 6.112 7.275 7.275 0 0 1-4.85 1.439 7.58 7.58 0 0 1-7.1-7.492H92.962a7.55 7.55 0 0 1-3.352 6.23 7.255 7.255 0 0 1-4.83 1.262 7.6 7.6 0 0 1-6.881-7.512 7.547 7.547 0 0 0-.69-.039c-1.38 0-2.76-.059-4.14.02-3.1.158-4.2-.67-3.982-4.042.02-.315 0-.631 0-1.045-1.183 0-2.307-.039-3.43.02a1.6 1.6 0 0 1-1.6-.789 3.039 3.039 0 0 1-.057-.728zm67.722-13.466a1.423 1.423 0 0 0 0-.3c-.572-2.307-1.163-4.613-1.715-6.92-.118-.473-.394-.473-.749-.473h-9.286a5.245 5.245 0 0 0-.552.059v7.63zm-4.673 25.255a5.126 5.126 0 1 0-5.165-5.087 5.18 5.18 0 0 0 5.165 5.088zm-41.678 0a5.126 5.126 0 1 0-5.126-5.106 5.15 5.15 0 0 0 5.126 5.107zm45.463-35.369a2.536 2.536 0 0 0-2.642-2.642c-2.76-.02-5.5 0-8.261 0-.158 0-.335.02-.532.039v2.6zm3.746 17.566c-.276 2.287.335 2.9 2.563 2.563v-2.563z" transform="translate(-64 -135.1)" fill="url(#a)"/><path data-name="Path 94" d="M180.568 203.533c1.262-1.262 2.484-2.5 3.706-3.726 2.169-2.169 4.337-4.357 6.526-6.526a3.377 3.377 0 0 1 .493-.434 1.165 1.165 0 0 1 1.6 1.6 2.511 2.511 0 0 1-.473.552c-3.588 3.588-7.157 7.176-10.745 10.745-.867.867-1.4.867-2.248.02-1.932-1.932-3.864-3.844-5.777-5.8a1.8 1.8 0 0 1-.552-1.124 1.6 1.6 0 0 1 .69-1.005c.493-.335.986-.059 1.38.335l4.751 4.751c.196.198.393.379.649.612z" transform="translate(-151.587 -181.314)" fill="url(#a)"/><path data-name="Path 95" d="M227.672 303.866h-8.261c-.237 0-.493 0-.729-.02a1.084 1.084 0 0 1-.986-1.124 1.057 1.057 0 0 1 .867-1.143 3.235 3.235 0 0 1 .867-.079h16.817c.907.02 1.479.473 1.459 1.2 0 .729-.552 1.163-1.479 1.163z" transform="translate(-187.394 -268.694)" fill="url(#a)"/><path data-name="Path 96" d="M85.594 278.266h-7.215c-.946 0-1.479-.434-1.479-1.163s.552-1.2 1.459-1.2h14.589c.887 0 1.459.493 1.439 1.222-.02.71-.552 1.143-1.439 1.143z" transform="translate(-74.357 -248.141)" fill="url(#a)"/><path data-name="Path 102" d="M376.169 329.605a2.435 2.435 0 1 1-4.87.059 2.435 2.435 0 0 1 4.87-.059z" transform="translate(-310.714 -289.327)" fill="url(#a)"/><path data-name="Path 103" d="M164.789 329.625a2.445 2.445 0 0 1-2.425 2.464 2.514 2.514 0 0 1-2.464-2.445 2.457 2.457 0 0 1 2.445-2.445 2.4 2.4 0 0 1 2.444 2.426z" transform="translate(-140.993 -289.327)" fill="url(#a)"/></svg>