<svg xmlns="http://www.w3.org/2000/svg" width="65.552" height="59.386"><defs><linearGradient id="a" x1=".5" x2=".5" y2="1" gradientUnits="objectBoundingBox"><stop offset="0" stop-color="#fedcdc"/><stop offset="1" stop-color="#fff"/></linearGradient></defs><path data-name="Path 104" d="M63.834 107.709h10.324v-.718c0-2.137.017-4.273-.017-6.393a.994.994 0 0 1 .513-.974q13.333-8.179 26.614-16.392a.8.8 0 0 1 .974.017q13.333 8.23 26.665 16.444a1.018 1.018 0 0 1 .427.667c.017 5.743.017 11.469.017 17.213a2.184 2.184 0 0 1-.034.291h-1.863v-12.308H91.525v-1.9h35.861v-2.171H76.124v2.12h13.264v1.932H76.107v2.188h6.068v2.017h40.989v26.631h4.236v-16.34h1.9v18.29H94.465c-.068.222-.137.376-.188.547a5.046 5.046 0 0 1-4.837 3.59 4.969 4.969 0 0 1-4.8-3.521c-.154-.513-.41-.581-.855-.581-6.393.017-12.8.017-19.2 0-.256 0-.513-.017-.769-.034v-1.914a1.893 1.893 0 0 0 .325.034H79.8a3.642 3.642 0 0 0 .427-.051v-6.223h-3.368c-4.342 0-8.7-.017-13.042-.017v-1.914c.085 0 .171.017.256.017H79.8a3.648 3.648 0 0 0 .427-.051v-18.53H63.8c.034-.684.034-1.316.034-1.966zm14.751-8.222h46.305c-.222-.154-.342-.239-.462-.308q-11.128-6.845-22.254-13.708a.742.742 0 0 0-.906.051l-13.657 8.41c-2.957 1.812-5.911 3.641-9.025 5.555zm40.528 36.887h2.12v-20.546H82.278v2.137h.735c2.085 0 4.188-.017 6.273.017a1.444 1.444 0 0 1 .94.376q4.025 3.974 8 8a1.555 1.555 0 0 1 .393.94c.034 2.786.017 5.589.017 8.376v.7h2.188V128.2h4.1v-8.136h10.136v8.17h4.068c-.015 2.756-.015 5.405-.015 8.14zm2.154-24.648H82.278v2.085h38.989zm-38.989 16.392v8.29c.479 0 .923-.034 1.367 0 .581.051.991-.051 1.06-.735a1.655 1.655 0 0 1 .273-.65 5.107 5.107 0 0 1 4.786-2.718 5.168 5.168 0 0 1 4.53 3.5c.068.222.273.53.444.547a18.043 18.043 0 0 0 1.932.034V128.1c-4.837.018-9.589.018-14.392.018zm12.939-1.983c-.085-.12-.1-.171-.137-.188-1.316-1.316-2.615-2.632-3.931-3.931-.7-.684-1.282-1.641-2.12-1.983a8.153 8.153 0 0 0-2.974-.12c-1.248-.017-2.513 0-3.795 0v6.239c4.325-.016 8.598-.016 12.957-.016zm15.726-1.094h-1.983v-3.077h-2.085v6.2h6.188v-6.2h-2.12zm-8.188 11.316h6.2v-6.171h-2.171v3.06h-1.914v-3.076h-2.12zm14.392.034v-6.2h-2.171v3.077h-1.914v-3.077h-2.12v6.222c2.103-.022 4.137-.022 6.206-.022zm-27.707 4.12a3.128 3.128 0 1 0-3.128-3.111 3.141 3.141 0 0 0 3.128 3.111z" transform="translate(-63.8 -83.074)" fill="url(#a)"/><path data-name="Path 105" d="M88.1 373.329V371.5h10.17v1.829z" transform="translate(-83.946 -322.199)" fill="url(#a)"/><path data-name="Path 106" d="M256.1 155.5h1.966v1.846H256.1z" transform="translate(-223.23 -143.12)" fill="url(#a)"/><path data-name="Path 107" d="M281.966 157.529H280V155.7h1.966z" transform="translate(-243.045 -143.286)" fill="url(#a)"/><path data-name="Path 108" d="M305.883 157.446H303.9V155.6h1.983z" transform="translate(-262.859 -143.203)" fill="url(#a)"/><path data-name="Path 109" d="M182.117 355.246H178.1V353.4h4.017z" transform="translate(-158.563 -307.193)" fill="url(#a)"/><path data-name="Path 110" d="M208 397.312V395.5h1.983v1.812z" transform="translate(-183.352 -342.097)" fill="url(#a)"/></svg>